<svg id="Fill_out_line" height="512" viewBox="0 0 512 512" width="512" xmlns="http://www.w3.org/2000/svg" data-name="Fill out line"><path d="m352 232h-.0001a129.7687 129.7687 0 0 0 -109.83665 121.06146l-2.16325 38.93854-96 16 8 48h176z" fill="#3ea7ff"/><path d="m352 232-50.96765 61.16118a80 80 0 0 0 -14.051 77.64278l41.01865 117.19604h136l17.00045-170.00447a88 88 0 0 0 -59.73523-92.24046l-5.26522-1.75507z" fill="#65dcff"/><path d="m481 318-17 170h-88l-5.89-39.24a334.60224 334.60224 0 0 1 -3.67005-45.58q-.10491-8.475.23-16.94a334.35615 334.35615 0 0 1 49.33005-162.24l5.27 1.76a87.9948 87.9948 0 0 1 59.73 92.24z" fill="#3ea7ff"/><path d="m352 408-9.37437 3.74975a64.51022 64.51022 0 0 0 -38.62563 44.25025h72z" fill="#ffc7cc"/><path d="m464 488 8-80-100.803 48 4.803 32z" fill="#2b7cd4"/><path d="m416 224 11.828 3.94268a88 88 0 0 1 60.172 83.48413v112.57319l-112 32-24-48 72-24v-72z" fill="#3ea7ff"/><circle cx="432" cy="168" fill="#eacf4d" r="32"/><path d="m454.7 133.7a66.39136 66.39136 0 0 1 -51.63989 39.58l-11.25 1.6-7.81011 1.12-16 24-48 8-16-56h-16l15.53-72.48a66.43547 66.43547 0 0 1 47.46-50.15l8.47-2.31a80.605 80.605 0 0 1 72.82 15.84 66.36975 66.36975 0 0 1 21.34 32.77l3.89 13.63a66.34907 66.34907 0 0 1 -2.81 44.4z" fill="#ffc7cc"/><path d="m454.7 133.7a66.39136 66.39136 0 0 1 -51.63989 39.58l-11.25 1.6-7.81011-46.88-76.4-61.12a66.36842 66.36842 0 0 1 43.39-37.51l8.47-2.31a80.605 80.605 0 0 1 72.82 15.84 66.36975 66.36975 0 0 1 21.34 32.77l3.89 13.63a66.34907 66.34907 0 0 1 -2.81 44.4z" fill="#f2e368"/><path d="m416 224-64 8 3.42-13.69 4.23-16.92.35-1.39 8.55-2.43 15.45-29.57 22.51 4.27z" fill="#ffc7cc"/><path d="m416 24-7.31 73.12-1.5 14.95h-38.38l-1.5-14.95-7.31-73.12z" fill="#808080"/><circle cx="388" cy="124" fill="#808080" r="28"/><path d="m256 456h-186.88314a16 16 0 0 1 -15.68929-12.86214l-25.6-128a16 16 0 0 1 15.68929-19.13786h180.48314z" fill="#e6e6e6"/><rect fill="#ccc" height="32" rx="16" width="200" x="56" y="456"/><rect fill="#b3b3b3" height="32" rx="16" width="200" x="240" y="456"/><path d="m264.80353 437.2338-25.72429-128.62144a15.68928 15.68928 0 0 0 -15.3846-12.61236 15.68928 15.68928 0 0 0 -15.38464 18.7662l25.7243 128.62144a15.68928 15.68928 0 0 0 15.3846 12.61236 15.68928 15.68928 0 0 0 15.38463-18.7662z" fill="#ccc"/><circle cx="120" cy="376" fill="#ccc" r="24"/><path d="m430.35791 220.35352-7.34277-2.4477-2.1045-11.46618a40.00095 40.00095 0 0 0 39.67835-66.41c.5094-1.047 1.00342-2.10333 1.46423-3.17859a74.61573 74.61573 0 0 0 3.15332-49.749l-3.89354-13.62793a74.11189 74.11189 0 0 0 -23.9087-36.71728 88.70515 88.70515 0 0 0 -13.70142-9.385l.25757-2.57593a8 8 0 0 0 -7.96045-8.79591h-56a7.96213 7.96213 0 0 0 -7.229 4.58844l-3.88672 1.06a74.13843 74.13843 0 0 0 -53.17428 56.1914l-15.53223 72.48389a8.00012 8.00012 0 0 0 7.82223 9.67627h9.96582l2.08887 7.31116-33.05225 26.44177a8.00018 8.00018 0 0 0 -1.65869 10.68457l16 24 13.3125-8.875-11.93115-17.8975 22.0946-17.67572 7.48792 26.20843a7.99287 7.99287 0 0 0 9.00781 5.69336l27.61621-4.60272-3.431 13.72394a138.24954 138.24954 0 0 0 -99.46265 78.875 23.74541 23.74541 0 0 0 -22.03799-15.87374v-.01355h-180.48291a24.00037 24.00037 0 0 0 -23.53418 28.70654l28.17236 140.86231a7.97654 7.97654 0 0 0 2.192 4.08655 23.99422 23.99422 0 0 0 21.65273 34.3446h392a8.00035 8.00035 0 0 0 7.96045-7.2041l5.3418-53.41913 12.8955-3.68439a8.00027 8.00027 0 0 0 5.80225-7.69238v-112.57324a95.877 95.877 0 0 0 -65.64209-91.07324zm-82.86816 196.514 15.56616 31.13248h-62.01891a69.016 69.016 0 0 1 46.45275-31.13245zm2.57666-16.65564-4.88672.81446a84.355 84.355 0 0 0 -34.24829 13.98996l-16.39917-46.85468a72.35285 72.35285 0 0 1 12.646-69.87891l48.94715-58.73638 44.83288-5.60407a341.65592 341.65592 0 0 0 -42.53637 163.4845zm37.93359-296.21188a20 20 0 1 1 -20 20 20.02292 20.02292 0 0 1 20-20zm68 64a23.99508 23.99508 0 0 1 -38.65747 18.99908l-1.54883-8.43914a75.16587 75.16587 0 0 0 35.79736-24.39643 24.02 24.02 0 0 1 4.40894 13.83649zm-28.83887-118.95166a58.17294 58.17294 0 0 1 18.76709 28.82129l3.89356 13.62793a58.38941 58.38941 0 0 1 -45.09619 73.38144l-2.59131-7.77356a35.95643 35.95643 0 0 0 14.13122-55.36023l5.66687-56.66773q2.70099 1.86518 5.22876 3.97086zm-20.00097-17.04834-5.856 58.55884a35.86574 35.86574 0 0 0 -26.6084 0l-5.85592-58.55884zm-54.06592 5.085.16968-.04626 6.1007 61.00818-41.74524-33.39647a58.18319 58.18319 0 0 1 35.47486-27.56545zm-41.40186 112.71725a8.00027 8.00027 0 0 0 -7.69238-5.80225h-6.104l13.45849-62.80762c.06446-.301.13941-.59771.2085-.89691l41.91089 33.52893a35.98091 35.98091 0 0 0 32.745 46.13043l2.43323 7.29944-5.78345.8263a7.99718 7.99718 0 0 0 -5.5249 3.48193l-14.07764 21.11621-37.53612 6.25586zm57.623 58.08886a7.99859 7.99859 0 0 0 5.34082-3.45361l14.01611-21.02393 11.44458-1.63507 6.48511 35.3338-44.00928 5.50147 3.54859-14.19367zm-39.291 37.98279-35.13818 42.16565a88.43233 88.43233 0 0 0 -15.45557 85.40723l18.45545 52.72986a84.38652 84.38652 0 0 0 -15.10654 21.82336h-10.95434a23.62668 23.62668 0 0 0 .82324-12.335l-20.08044-100.40108a122.07941 122.07941 0 0 1 77.45641-89.39002zm-98.79 64.30725 25.72462 128.62158a7.68915 7.68915 0 0 1 -7.54 9.19727 7.70989 7.70989 0 0 1 -7.54-6.18115l-25.72421-128.62158a7.689 7.689 0 0 1 7.54-9.19727 7.70978 7.70978 0 0 1 7.53959 6.18115zm-195.562 3.3877a7.99987 7.99987 0 0 1 7.84471-9.56885h157.77136a23.62068 23.62068 0 0 0 -.82312 12.335l25.72412 128.62158a23.48783 23.48783 0 0 0 .84729 3.04342h-164.47815zm28.32762 158.43115a8.00917 8.00917 0 0 1 8-8h161.37622a23.94021 23.94021 0 0 0 0 16h-161.37622a8.00917 8.00917 0 0 1 -8-8zm192 8a8 8 0 0 1 0-16h168a8 8 0 0 1 0 16zm200.76025 0h-10.13647a23.98662 23.98662 0 0 0 -16.39185-31.1745l30.51746-8.7193zm23.23975-62.03418-99.814 28.51807-16.90528-33.81153 63.249-21.083a8.00011 8.00011 0 0 0 5.47028-7.58936v-72h-16v66.23389l-41.50317 13.83447a325.70044 325.70044 0 0 1 45.05517-158.45166l5.74634 1.91553a79.89766 79.89766 0 0 1 54.70166 75.89453z"/><path d="m120 408a32 32 0 1 0 -32-32 32.036 32.036 0 0 0 32 32zm0-48a16 16 0 1 1 -16 16 16.01833 16.01833 0 0 1 16-16z"/><path d="m328 120h-8a8 8 0 0 0 0 16h8a8 8 0 0 0 0-16z"/></svg>