<svg id="Fill_out_line" height="512" viewBox="0 0 512 512" width="512" xmlns="http://www.w3.org/2000/svg" data-name="Fill out line"><circle cx="240" cy="280" fill="#e6e6e6" r="16"/><circle cx="240" cy="280" fill="#e6e6e6" r="16"/><path d="m440 328h32a16 16 0 0 1 16 16v88a16 16 0 0 1 -16 16h-32z" fill="#e6e6e6"/><rect fill="#65dcff" height="120" rx="16" width="160" x="296" y="328"/><path d="m413.33335 448 13.35386 20.03078a12.8444 12.8444 0 0 1 -10.68721 19.96922h-48a12.8444 12.8444 0 0 0 10.68719-19.96919l-13.35384-20.03081z" fill="#e6e6e6"/><path d="m168 328h32a16 16 0 0 1 16 16v88a16 16 0 0 1 -16 16h-32z" fill="#e6e6e6"/><rect fill="#65dcff" height="120" rx="16" width="160" x="24" y="328"/><g fill="#e6e6e6"><path d="m152.46733 448 13.35386 20.03078a12.8444 12.8444 0 0 1 -10.68719 19.96922h-48a12.8444 12.8444 0 0 0 10.68718-19.96919l-13.35385-20.03081z"/><circle cx="240" cy="280" r="16"/><circle cx="240" cy="280" r="16"/><circle cx="240" cy="280" r="16"/></g><path d="m120 168h208v64h-208z" fill="#2b7cd4"/><path d="m120 232h208v64h-208z" fill="#3ea7ff"/><path d="m120 104h208v64h-208z" fill="#3ea7ff"/><path d="m328 104h64v64h-64z" fill="#2b7cd4"/><path d="m328 168h64v64h-64z" fill="#104f91"/><path d="m328 232h64v64h-64z" fill="#2b7cd4"/><circle cx="384" cy="104" fill="#a0cc00" r="80"/><path d="m352 96h64v48h-64z" fill="#fcb73f"/><path d="m472 320h-160a24.0275 24.0275 0 0 0 -24 24v72h-24v-112h128a8.00008 8.00008 0 0 0 8-8v-88h-16v16h-48v-24h-16v24h-192v-48h168v-16h-168v-48h152v-16h-160a8.00008 8.00008 0 0 0 -8 8v192a8.00008 8.00008 0 0 0 8 8h128v112h-24.46729v-72a24.02718 24.02718 0 0 0 -24-24h-159.53271a24.02718 24.02718 0 0 0 -24 24v88a24.02718 24.02718 0 0 0 24 24h59.71875l10.979 16.46875a4.84437 4.84437 0 0 1 -4.03125 7.53125 8 8 0 0 0 0 16h48a20.84389 20.84389 0 0 0 17.34375-32.40625l-5.0625-7.59375h32.585a24.02718 24.02718 0 0 0 24-24h64.46725a24.0275 24.0275 0 0 0 24 24h49.05164l10.97912 16.46973a4.84348 4.84348 0 0 1 -4.03076 7.53027 8 8 0 0 0 0 16h48a20.8443 20.8443 0 0 0 17.34375-32.40625l-5.06226-7.59375h43.71851a24.02718 24.02718 0 0 0 24-24v-88a24.02718 24.02718 0 0 0 -24-24zm-88-32h-48v-48h48zm-256-48h192v48h-192zm30.69775 232.46875a4.84437 4.84437 0 0 1 -4.03125 7.53125h-27.72265a20.80468 20.80468 0 0 0 -2.9336-16.40625l-5.0625-7.59375h28.771zm-118.69775-32.46875a8.00917 8.00917 0 0 1 -8-8v-88a8.00917 8.00917 0 0 1 8-8h127.53271a8.00916 8.00916 0 0 1 8 8v88a8.00916 8.00916 0 0 1 -8 8zm167.53271-8a8.00916 8.00916 0 0 1 -8 8h-9.37622a23.881 23.881 0 0 0 1.37622-8v-88a23.881 23.881 0 0 0 -1.37622-8h9.37622a8.00916 8.00916 0 0 1 8 8zm212.49805 40.46973a4.84348 4.84348 0 0 1 -4.03076 7.53027h-27.72266a20.8086 20.8086 0 0 0 -2.93359-16.40625l-5.06226-7.59375h28.77015zm-108.03076-32.46973a8.00917 8.00917 0 0 1 -8-8v-88a8.00917 8.00917 0 0 1 8-8h128a8.00917 8.00917 0 0 1 8 8v88a8.00917 8.00917 0 0 1 -8 8zm168-8a8.00917 8.00917 0 0 1 -8 8h-9.37622a23.88129 23.88129 0 0 0 1.37622-8v-88a23.88129 23.88129 0 0 0 -1.37622-8h9.37622a8.00917 8.00917 0 0 1 8 8z"/><path d="m152 256h16v16h-16z"/><path d="m184 256h16v16h-16z"/><path d="m216 256h48v16h-48z"/><path d="m152 192h16v16h-16z"/><path d="m184 192h16v16h-16z"/><path d="m216 192h48v16h-48z"/><path d="m152 128h16v16h-16z"/><path d="m184 128h16v16h-16z"/><path d="m216 128h48v16h-48z"/><path d="m384 192a88 88 0 1 0 -88-88 88.09957 88.09957 0 0 0 88 88zm0-160a72 72 0 1 1 -72 72 72.08156 72.08156 0 0 1 72-72z"/><path d="m352 152h64a8.00008 8.00008 0 0 0 8-8v-48a8.00008 8.00008 0 0 0 -8-8h-8v-16a24 24 0 0 0 -48 0v16h-8a8.00008 8.00008 0 0 0 -8 8v48a8.00008 8.00008 0 0 0 8 8zm24-80a8 8 0 0 1 16 0v16h-16zm-16 32h48v32h-48z"/></svg>