<svg id="Fill_out_line" height="512" viewBox="0 0 512 512" width="512" xmlns="http://www.w3.org/2000/svg" data-name="Fill out line"><path d="m408 136a40.30107 40.30107 0 0 0 -9.32 1.1001 32.00353 32.00353 0 0 0 -30.68-41.1001c-.11 0-.23 0-.34.01a31.70341 31.70341 0 0 0 -15.71 4.31006c-.01.01-.02.01-.03.01977h-.01a79.99641 79.99641 0 1 0 -157.84 21.72022h-.01a48.005 48.005 0 0 0 13.94 93.93995h200a40 40 0 0 0 0-80z" fill="#3ea7ff"/><path d="m384 488h-136a16 16 0 0 1 -16-16 16 16 0 0 1 16-16h136z" fill="#e6e6e6"/><rect fill="#ccc" height="32" rx="16" width="136" x="336" y="456"/><path d="m457.75377 456h-103.50757a8 8 0 0 1 -7.76114-9.94029l20-80a8 8 0 0 1 7.76114-6.05971h103.50757a8 8 0 0 1 7.76114 9.94029l-20 80a8 8 0 0 1 -7.76114 6.05971z" fill="#e6e6e6"/><path d="m425.75377 456h-71.50757a8 8 0 0 1 -7.76114-9.94029l20-80a8 8 0 0 1 7.76114-6.05971h71.50757a8 8 0 0 1 7.76114 9.94029l-20 80a8 8 0 0 1 -7.76114 6.05971z" fill="#65dcff"/><path d="m128 424h136a16 16 0 0 0 16-16 16 16 0 0 0 -16-16h-136z" fill="#e6e6e6"/><rect fill="#ccc" height="32" rx="16" width="136" x="40" y="392"/><path d="m54.24621 392h103.50758a8 8 0 0 0 7.76114-9.94029l-20-80a8 8 0 0 0 -7.76114-6.05971h-103.50758a8 8 0 0 0 -7.76114 9.94029l20 80a8 8 0 0 0 7.76114 6.05971z" fill="#e6e6e6"/><path d="m86.24621 392h71.50758a8 8 0 0 0 7.76114-9.94029l-20-80a8 8 0 0 0 -7.76114-6.05971h-71.50758a8 8 0 0 0 -7.76114 9.94029l20 80a8 8 0 0 0 7.76114 6.05971z" fill="#65dcff"/><path d="m232 320h16v16h-16z"/><path d="m232 352h16v16h-16z"/><path d="m384 304h16v16h-16z"/><path d="m208 224h96v32h-64a8.00008 8.00008 0 0 0 -8 8v40h16v-32h136v16h16v-24a8.00008 8.00008 0 0 0 -8-8h-72v-32h88a48 48 0 0 0 0-96 39.91363 39.91363 0 0 0 -49.26593-38.88892 87.99589 87.99589 0 0 0 -173.76752 27.83106 56.0086 56.0086 0 0 0 23.03345 107.05786zm-19.12958-91.11816a87.314 87.314 0 0 0 6.90741 15.124l13.84961-8.01172a71.98561 71.98561 0 1 1 132.93213-21.585l15.68066 3.18164a88.566 88.566 0 0 0 1.725-16.19678 23.99584 23.99584 0 0 1 31.0426 29.438 8.00056 8.00056 0 0 0 9.53028 10.05274 31.99885 31.99885 0 1 1 7.46189 63.11528h-200a39.99309 39.99309 0 0 1 -19.12958-75.11816z"/><path d="m493.27637 371.87988a15.99988 15.99988 0 0 0 -15.52246-19.87988h-77.75391v-16h-16v16h-9.75391a15.9778 15.9778 0 0 0 -15.52246 12.11914l-20 80.001a16.117 16.117 0 0 0 -.47229 3.87986h-90.25134a24 24 0 0 0 0 48h208a23.9839 23.9839 0 0 0 16.3822-41.51611 16.1004 16.1004 0 0 0 .89417-2.603zm-119.03028-3.87988h71.50782l-20 80h-71.50782zm-134.24609 104a8.00917 8.00917 0 0 1 8-8h81.37616a23.94119 23.94119 0 0 0 0 16h-81.37616a8.00917 8.00917 0 0 1 -8-8zm216 8h-104a8 8 0 0 1 0-16h104a8 8 0 0 1 0 16zm0-32h-13.75342l19.02979-76.11914a16.12174 16.12174 0 0 0 .47223-3.88086h16.00531l-20 80v.071c-.57991-.04219-1.16346-.071-1.75391-.071z"/><path d="m288 408a24.02718 24.02718 0 0 0 -24-24h-90.2514a16.12174 16.12174 0 0 0 -.47223-3.88086l-20-80a15.9778 15.9778 0 0 0 -15.52246-12.11914h-103.50782a16.00019 16.00019 0 0 0 -15.52246 19.88086l20 80a16.1004 16.1004 0 0 0 .89417 2.603 23.9839 23.9839 0 0 0 16.3822 41.51614h208a24.02718 24.02718 0 0 0 24-24zm-16 0a8.00917 8.00917 0 0 1 -8 8h-81.37616a23.94119 23.94119 0 0 0 0-16h81.37616a8.00917 8.00917 0 0 1 8 8zm-134.24609-104 20.021 79.999-.021.001h-71.50782l-20.021-79.999.021-.001zm-103.50782 0h16.00531a16.12174 16.12174 0 0 0 .47223 3.88086l19.02979 76.11914h-13.75342c-.59045 0-1.174.02881-1.75391.071v-.071zm21.75391 112a8 8 0 0 1 0-16h104a8 8 0 0 1 0 16z"/></svg>