<svg id="Fill_out_line" height="512" viewBox="0 0 512 512" width="512" xmlns="http://www.w3.org/2000/svg" data-name="Fill out line"><path d="m24 24h464v464h-464z" fill="#a0eaff"/><path d="m24 24h464v64h-464z" fill="#3ea7ff"/><path d="m456 88h32v400h-32z" fill="#65dcff"/><path d="m456 160h32v48h-32z" fill="#57c1ff"/><circle cx="304" cy="248" fill="#65dcff" r="88"/><path d="m56 216h151v64h-151z" fill="#a0cc00"/><path d="m216 192h112v112h-112z" fill="#a0cc00"/><path d="m208 232h72v32h-72z" fill="#85b200"/><path d="m288 360h32v40h-32z" fill="#4d4d4d"/><path d="m304 128a120 120 0 1 0 120 120 120 120 0 0 0 -120-120zm0 208a88 88 0 1 1 88-88 88 88 0 0 1 -88 88z" fill="#3ea7ff"/><path d="m272 400h64v88h-64z" fill="#808080"/><path d="m304 152a96 96 0 1 0 96 96 96.10874 96.10874 0 0 0 -96-96zm-63.95642 144a79.83773 79.83773 0 0 1 -12.36072-24h52.31714a8.00008 8.00008 0 0 0 8-8v-32a8.00008 8.00008 0 0 0 -8-8h-52.31714a79.83773 79.83773 0 0 1 12.36072-24h71.95642v96zm-16.04358-48c0-2.7.13843-5.36792.401-8h47.599v16h-47.599c-.26257-2.63208-.401-5.3-.401-8zm80 80a79.5825 79.5825 0 0 1 -47.94458-16h63.94458a8.00008 8.00008 0 0 0 8-8v-112a8.00008 8.00008 0 0 0 -8-8h-63.94458a79.98615 79.98615 0 1 1 47.94458 144z"/><path d="m304 120a128.2223 128.2223 0 0 0 -121.59192 88h-126.40808a8.00008 8.00008 0 0 0 -8 8v64a8.00008 8.00008 0 0 0 8 8h126.40808a128.43671 128.43671 0 0 0 97.59192 85.73364v18.26636h-8a8.00008 8.00008 0 0 0 -8 8v64h16v-56h48v56h16v-64a8.00008 8.00008 0 0 0 -8-8h-8v-18.26636c59.14636-11.26635 104-63.35644 104-125.73364a128.14509 128.14509 0 0 0 -128-128zm-240 152v-48h114.26636a127.69032 127.69032 0 0 0 -2.009 16h-16.25736v16h16.25732a127.69032 127.69032 0 0 0 2.009 16zm248 120h-16v-16.25732c2.64685.16406 5.3125.25732 8 .25732s5.35315-.09326 8-.25732zm-8-32a112 112 0 1 1 112-112 112.12706 112.12706 0 0 1 -112 112z"/><path d="m80 240h16v16h-16z"/><path d="m112 240h32v16h-32z"/><path d="m488 16h-464a8.00008 8.00008 0 0 0 -8 8v464a8.00008 8.00008 0 0 0 8 8h464a8.00008 8.00008 0 0 0 8-8v-464a8.00008 8.00008 0 0 0 -8-8zm-456 464v-448h448v120h-16v-40h-16v352h16v-248h16v264zm432-312h16v32h-16z"/><circle cx="56" cy="56" r="8"/><circle cx="88" cy="56" r="8"/><circle cx="120" cy="56" r="8"/><path d="m48 80h416v16h-416z"/><path d="m160 48h264v16h-264z"/></svg>