<svg id="Fill_out_line" height="512" viewBox="0 0 512 512" width="512" xmlns="http://www.w3.org/2000/svg" data-name="Fill out line"><path d="m370.92993 421.9-74.92993-109.9h-136l74.93 109.9a41.71079 41.71079 0 0 1 7.35 26.1 42.642 42.642 0 0 1 -4.16 16 41.858 41.858 0 0 1 -38.12 24h136c33.97 0 54.07007-38.03 34.92993-66.1zm-72.72993 2.1a26.62526 26.62526 0 0 1 -22.16-11.86l-12.04-20.14h40l5.65991 10.57a13.60792 13.60792 0 0 1 2.34009 7.61 13.8005 13.8005 0 0 1 -13.8 13.82z" fill="#ccc"/><path d="m440 120h32a16 16 0 0 1 16 16v240a16 16 0 0 1 -16 16h-32z" fill="#ccc"/><rect fill="#e6e6e6" height="272" rx="16" width="432" x="24" y="120"/><rect fill="#65dcff" height="208" rx="16" width="368" x="56" y="152"/><path d="m88 24h304v312h-304z" fill="#3ea7ff"/><g fill="#87c9ff"><path d="m120 120h48v48h-48z"/><path d="m200 120h48v48h-48z"/><path d="m280 120h48v48h-48z"/><path d="m120 200h48v48h-48z"/><path d="m200 200h48v48h-48z"/><path d="m280 200h48v48h-48z"/><path d="m120 280h48v48h-48z"/><path d="m200 280h48v48h-48z"/><path d="m280 280h48v48h-48z"/><path d="m360 88h32v248h-32z"/></g><path d="m360 176h32v48h-32z" fill="#2b7cd4"/><path d="m88 24h304v64h-304z" fill="#2b7cd4"/><path d="m40 400h170.31726l18.006 26.40869a34.28016 34.28016 0 0 1 -28.32326 53.59131 8 8 0 0 0 0 16h136a50.28035 50.28035 0 0 0 41.543-78.605l-11.86026-17.395h106.31726a24.0275 24.0275 0 0 0 24-24v-240a24.0275 24.0275 0 0 0 -24-24h-56v16h24a8.00917 8.00917 0 0 1 8 8v240a8.00917 8.00917 0 0 1 -8 8h-400a8.00917 8.00917 0 0 1 -8-8v-240a8.00917 8.00917 0 0 1 8-8h24v-16h-24a24.02687 24.02687 0 0 0 -24 24v240a24.02687 24.02687 0 0 0 24 24zm422.6239-272h9.3761a8.00917 8.00917 0 0 1 8 8v240a8.00917 8.00917 0 0 1 -8 8h-9.3761a23.88505 23.88505 0 0 0 1.3761-8v-240a23.88505 23.88505 0 0 0 -1.3761-8zm-98.30066 298.40869a34.28016 34.28016 0 0 1 -28.32324 53.59131h-99.123a51.64032 51.64032 0 0 0 7.57666-10.78613 52.80037 52.80037 0 0 0 2.39888-5.21387h33.14746v-16h-29.65259a49.79047 49.79047 0 0 0 -8.80444-30.605l-11.86029-17.395h29.779l9.71356 16.249c.06739.11231.1377.22364.21045.33252a34.55538 34.55538 0 0 0 28.80962 15.41848 21.77422 21.77422 0 0 0 19.22834-32h28.89367zm-65.11424-26.40869 3.4004 6.35059q.18237.33984.39648.66162a5.78107 5.78107 0 0 1 -4.81057 8.98779 18.58655 18.58655 0 0 1 -15.39648-8.14453l-4.69583-7.85547z"/><path d="m68.00586 161.06543-8.01172-13.84961a24.084 24.084 0 0 0 -11.99414 20.78418v176a24.02687 24.02687 0 0 0 24 24h336a24.02687 24.02687 0 0 0 24-24v-176a24.084 24.084 0 0 0 -11.99414-20.78418l-8.01172 13.84961a8.03762 8.03762 0 0 1 4.00586 6.93457v176a8.00917 8.00917 0 0 1 -8 8h-336a8.00917 8.00917 0 0 1 -8-8v-176a8.03762 8.03762 0 0 1 4.00586-6.93457z"/><path d="m296 448h16v16h-16z"/><path d="m328 448h16v16h-16z"/><path d="m96 96h272v-16h-272v-48h288v136h-16v-56h-16v224h16v-104h16v104h16v-312a7.99977 7.99977 0 0 0 -8-8h-304a7.99977 7.99977 0 0 0 -8 8v312h16zm272 120v-32h16v32z"/><circle cx="120" cy="56" r="8"/><circle cx="152" cy="56" r="8"/><circle cx="184" cy="56" r="8"/><path d="m176 120a7.99977 7.99977 0 0 0 -8-8h-48a7.99977 7.99977 0 0 0 -8 8v48a7.99977 7.99977 0 0 0 8 8h48a7.99977 7.99977 0 0 0 8-8zm-16 40h-32v-32h32z"/><path d="m256 120a7.99977 7.99977 0 0 0 -8-8h-48a7.99977 7.99977 0 0 0 -8 8v48a7.99977 7.99977 0 0 0 8 8h48a7.99977 7.99977 0 0 0 8-8zm-16 40h-32v-32h32z"/><path d="m336 120a7.99977 7.99977 0 0 0 -8-8h-48a7.99977 7.99977 0 0 0 -8 8v48a7.99977 7.99977 0 0 0 8 8h48a7.99977 7.99977 0 0 0 8-8zm-16 40h-32v-32h32z"/><path d="m176 200a7.99977 7.99977 0 0 0 -8-8h-48a7.99977 7.99977 0 0 0 -8 8v48a7.99977 7.99977 0 0 0 8 8h48a7.99977 7.99977 0 0 0 8-8zm-16 40h-32v-32h32z"/><path d="m256 200a7.99977 7.99977 0 0 0 -8-8h-48a7.99977 7.99977 0 0 0 -8 8v48a7.99977 7.99977 0 0 0 8 8h48a7.99977 7.99977 0 0 0 8-8zm-16 40h-32v-32h32z"/><path d="m336 200a7.99977 7.99977 0 0 0 -8-8h-48a7.99977 7.99977 0 0 0 -8 8v48a7.99977 7.99977 0 0 0 8 8h48a7.99977 7.99977 0 0 0 8-8zm-16 40h-32v-32h32z"/><path d="m168 272h-48a7.99977 7.99977 0 0 0 -8 8v48a7.99977 7.99977 0 0 0 8 8h48a7.99977 7.99977 0 0 0 8-8v-48a7.99977 7.99977 0 0 0 -8-8zm-8 48h-32v-32h32z"/><path d="m248 272h-48a7.99977 7.99977 0 0 0 -8 8v48a7.99977 7.99977 0 0 0 8 8h48a7.99977 7.99977 0 0 0 8-8v-48a7.99977 7.99977 0 0 0 -8-8zm-8 48h-32v-32h32z"/><path d="m328 272h-48a7.99977 7.99977 0 0 0 -8 8v48a7.99977 7.99977 0 0 0 8 8h48a7.99977 7.99977 0 0 0 8-8v-48a7.99977 7.99977 0 0 0 -8-8zm-8 48h-32v-32h32z"/></svg>